<svg id="Layer_1" data-name="Layer 1" xmlns="http://www.w3.org/2000/svg" viewBox="0 0 800 300"><defs><style>.cls-1{fill:#859900;}.cls-2{fill:#aab543;}</style></defs><title>banner</title><rect class="cls-1" width="800" height="300"/><path class="cls-2" d="M544.64,167.28c42.41-40.71,90.8-36.46,118.24-80.6C673.8,69.12,680.31,54,684.19,42.11c-41.86-27.19-108.47-7.36-152.82,46.95-43.12,52.81-50.09,119.71-18.27,156.08C513.8,222.94,519.77,191.16,544.64,167.28Z"/><path class="cls-2" d="M698.07,53.93c.46,16.06-2.67,34.3-14.86,49.48-29,36.16-106.45,42.86-132.63,99.88-11.79,25.68-20.23,42.1-25.94,52.39,41.6,30.37,110.5,10.95,156-44.76C724.12,157.68,730.83,90.09,698.07,53.93Z"/></svg>