<svg id="Layer_1" data-name="Layer 1" xmlns="http://www.w3.org/2000/svg" viewBox="0 0 800 300"><defs><style>.cls-1{fill:#6c71c4;}.cls-2{fill:#8b92cc;}</style></defs><title>banner</title><rect class="cls-1" width="800" height="300"/><path class="cls-2" d="M670.35,249.75H529.65A29.68,29.68,0,0,1,500,220.1V79.4a29.68,29.68,0,0,1,29.65-29.65H670.35A29.68,29.68,0,0,1,700,79.4V220.1A29.68,29.68,0,0,1,670.35,249.75ZM529.65,63.87A15.55,15.55,0,0,0,514.12,79.4V220.1a15.55,15.55,0,0,0,15.53,15.53H670.35a15.55,15.55,0,0,0,15.53-15.53V79.4a15.55,15.55,0,0,0-15.53-15.53Z"/><path class="cls-2" d="M642.07,149.3H558.43l-38.26-42,5.12-4.76C541.53,87.49,569.46,78.49,600,78.49c30.77,0,58.81,9.1,75,24.35l5.05,4.76Zm-77.41-14.12h71.17l24.11-26.46C645.8,98.67,623.61,92.6,600,92.6c-23.4,0-45.48,6-59.65,15.92Z"/><polygon class="cls-2" points="595.6 141.21 600 132.15 599.22 141.21 595.6 141.21"/><polygon class="cls-2" points="603.54 145.91 588.08 145.91 606.86 107.25 603.54 145.91"/><rect class="cls-2" x="562.2" y="93.31" width="10.36" height="15.53" transform="translate(-3.47 180.28) rotate(-18)"/><rect class="cls-2" x="594.3" y="88.65" width="10.36" height="15.53"/><rect class="cls-2" x="627.44" y="93.31" width="10.36" height="15.53" transform="translate(62.2 -190.54) rotate(18)"/></svg>