<svg id="Layer_1" data-name="Layer 1" xmlns="http://www.w3.org/2000/svg" viewBox="0 0 800 300"><defs><style>.cls-1{fill:#268bd2;}.cls-2{fill:#6eb8e5;}</style></defs><title>banner</title><rect class="cls-1" width="800" height="300"/><path class="cls-2" d="M670.19,247.26a3.11,3.11,0,0,1-.38-.8c-.1-.92-.15-1.86-.19-2.79-.12-3.44-.22-6.87-.33-10.31,0-.2,0-.41,0-.61-.1-2-.24-4-.28-6a6.63,6.63,0,0,0-1.72-4.55,1.61,1.61,0,0,1-.38-.9c-9.34,5.47-20.06,10.5-28.28,10.77-14.66.49-48.31-6-61.15-8.54a2.2,2.2,0,0,1-.75.7c-2.51,1.53-5,3.14-7.48,4.69a2.88,2.88,0,0,0-1.38,2,18.28,18.28,0,0,0-.3,2.86c0,1.69.16,3.38.1,5.06-.17,4.31-.41,8.61-.66,12.92-.06,1.13.18,2.36-.86,3.24a.4.4,0,0,0-.09.24c-.22,1.86.18,3.89,2.05,5a14.19,14.19,0,0,0,4.36,1.48c.9.2,1.84.28,2.74.47,1.39.29,2.76.65,4.15.91s2.93.46,4.4.69c2.64.42,5.29.84,7.92,1.28,2.06.35,4.11.73,6.17,1.1l.69.1,8.57,1.14c2.25.31,4.49.68,6.75.94,3,.35,6,.67,8.94.92,3.3.27,6.61.53,9.93.65a32,32,0,0,0,7.22-.49c2.4-.46,4.8-.87,7.18-1.43a39.5,39.5,0,0,0,4.71-1.52,60.23,60.23,0,0,0,6.44-2.64c2.43-1.25,4.73-2.75,7-4.22a12.88,12.88,0,0,0,5.12-5.68,7.71,7.71,0,0,0,.71-4.51A10.47,10.47,0,0,0,670.19,247.26Z"/><path class="cls-2" d="M666.18,208.69q-.44-8-.87-16-.45-8.47-.89-16.94-.34-6.46-.7-12.92-.44-8.25-.87-16.5-.35-6.64-.7-13.27-.22-4.15-.44-8.3c-6.44,2.07-25.3,8-31.24,8.34s-39.71-2.72-50.27-3.7q-.09,3.14-.17,6.28c-.08,2.91-.13,5.83-.2,8.74q-.17,6.6-.34,13.2-.17,6.38-.33,12.77c-.18,6.91-.39,13.81-.52,20.72a5.66,5.66,0,0,1-1.14,3.57,3.43,3.43,0,0,0-.68,2.21c0,1,0,2.1-.12,3.14a8.31,8.31,0,0,0,1,5.47,3.52,3.52,0,0,1,.51,2.26c-.07,1.08-.11,2.15-.14,3.23-.09,2.92-.19,5.83-.27,8.75,11.72,2.14,48.73,8.64,62,7.87,7.16-.41,17.6-4.61,26.91-9.1Q666.45,213.62,666.18,208.69Z"/><path class="cls-2" d="M579.91,122.75c9.05.52,32.94,1.89,45.85,2.44a28.65,28.65,0,0,0,8.69-.66c4.45-1.37,20.77-5.89,26.86-7.57v-.1a1.22,1.22,0,0,1,.33-.9,1.75,1.75,0,0,0,.68-1.61c-.12-2.15-.23-4.31-.35-6.46-.23-4.1-.51-8.2-.66-12.31a2.45,2.45,0,0,0-1.53-2.39,1.07,1.07,0,0,1-.67-1.09q-.14-5.81-.33-11.62-.18-5.64-.39-11.27c0-1.31-.1-2.62-.19-3.93q-.32-4.75-.67-9.5c-.18-2.41-.36-4.82-.56-7.23q-.4-4.66-.84-9.31c-.22-2.35-.46-4.7-.72-7A2.3,2.3,0,0,0,653.56,30c-.68-.16-74.44,1-76.66,1.31-9.18,1.23-16.51,6-22.85,12.41a94.88,94.88,0,0,0-9,11.06q-6.85,9.45-13.64,19c-.78,1.09-1.52,2.21-2.26,3.32a2.41,2.41,0,0,0-.06,2.57c.25.49.54,1,.8,1.46,2.8,5.28,5.63,10.54,8.4,15.84s5.21,10.89,7.48,16.48a4,4,0,0,1,.13,1.53c0,1.54-.09,3.08-.14,4.62,0,.66.33.94,1,1,1.54.12,3.08.26,4.62.37,2.91.2,5.82.37,8.72.55l13.7.86c1.92.12,3.84.25,5.76.36A1.31,1.31,0,0,1,579.91,122.75ZM563.18,96.3c-2.28.34-4.55.72-6.84.95a5.81,5.81,0,0,0-5.07,4L547,111.58c-.1.24-.21.47-.31.71l-.21,0c-.47-1-.95-2-1.42-3.07-2.45-5.23-4.8-10.5-7.38-15.66-2.08-4.17-4.45-8.2-6.68-12.29-.29-.54-.57-1.08-.82-1.64a1.69,1.69,0,0,1,1.27-2.52,5.79,5.79,0,0,1,1.47-.16c3,.1,6.05.22,9.08.33l14.15.53,9.7.34,11.27.36,10.57.34c3.76.12,7.51.22,11.27.36,2.44.09,4.89.17,7.33.35a7.88,7.88,0,0,1,6.13,3.27c1.57,2.23,2.9,4.64,4.32,7a2.57,2.57,0,0,1,.15.44c-.35,0-.65.09-1,.11-4.37.19-8.74.33-13.1.59q-7.68.46-15.29,1.64C579.44,93.87,571.31,95.08,563.18,96.3Z"/></svg>