<svg id="Layer_1" data-name="Layer 1" xmlns="http://www.w3.org/2000/svg" viewBox="0 0 800 300"><defs><style>.cls-1{fill:#586e75;}.cls-2{fill:#798b91;}</style></defs><title>banner</title><rect class="cls-1" width="800" height="300"/><path class="cls-2" d="M637.47,135.85a68.69,68.69,0,0,1,13.59,12.61c14.05,17.31,20.11,37.16,18.48,59.34-.45,6.16-2.23,12-6.31,16.82s-9.79,7.53-16,9c-8.33,2-16.83,2.27-25.34,2.25q-20.87,0-41.75-.28a113.06,113.06,0,0,1-23.59-2.4c-5.82-1.32-11.34-3.33-16-7.23a24.65,24.65,0,0,1-8.9-17.78c-1.89-29.14,7.84-53.36,31.06-71.68.21-.17.43-.32.65-.47a2.6,2.6,0,0,1,.33-.15c10,10.51,22.12,16.31,36.75,16.32S627.33,146.5,637.47,135.85Z"/><path class="cls-2" d="M600.64,63.52a39.21,39.21,0,1,1-39.25,39.16A39.22,39.22,0,0,1,600.64,63.52Z"/><path class="cls-2" d="M678.49,210.42c1.91-25.67-4.72-48.48-21-68.44,17.28,7.49,32.5,4.56,45.91-8.52a52.38,52.38,0,0,1,11.36,10.83c10,12.89,14.27,27.58,13.34,43.79-.34,5.9-2.06,11.36-6.67,15.49-3.44,3.08-7.64,4.58-12.07,5.47-7.51,1.51-15.12,1.4-22.73,1.38Z"/><path class="cls-2" d="M543.58,142c-16.12,20-22.84,42.72-20.85,68.27a1,1,0,0,1-.36.1c-8.82,0-17.66.13-26.37-1.36a49.58,49.58,0,0,1-10.54-3c-7.24-3-11.28-8.74-12.1-16.44a62.11,62.11,0,0,1,9.25-39.78,55.83,55.83,0,0,1,14-15.43c.42-.32.86-.62,1.35-1a38.35,38.35,0,0,0,45.63,8.6Z"/><path class="cls-2" d="M674.9,138.1a30.19,30.19,0,1,1,30.16-30.32A30.32,30.32,0,0,1,674.9,138.1Z"/><path class="cls-2" d="M526.26,138.1A30.2,30.2,0,1,1,556.53,108,30.28,30.28,0,0,1,526.26,138.1Z"/></svg>