<?xml version="1.0" standalone="no"?>
<!DOCTYPE svg PUBLIC "-//W3C//DTD SVG 20010904//EN"
 "http://www.w3.org/TR/2001/REC-SVG-20010904/DTD/svg10.dtd">
<svg version="1.0" xmlns="http://www.w3.org/2000/svg"
 width="700.000000pt" height="700.000000pt" viewBox="0 0 700.000000 700.000000"
 preserveAspectRatio="xMidYMid meet">
<metadata>
Created by potrace 1.11, written by Peter Selinger 2001-2013
</metadata>
<g transform="translate(0.000000,700.000000) scale(0.100000,-0.100000)"
fill="#000000" stroke="none">
<path d="M3350 6994 c-680 -45 -1220 -218 -1750 -559 -893 -576 -1470 -1527
-1581 -2605 -16 -148 -16 -522 0 -670 141 -1379 1049 -2528 2348 -2973 414
-142 762 -194 1223 -184 312 7 491 30 765 98 896 222 1678 805 2157 1607 243
405 394 841 464 1337 21 152 30 585 15 755 -49 550 -231 1093 -520 1553 -579
920 -1548 1522 -2616 1626 -114 11 -423 20 -505 15z m558 -408 c656 -99 1216
-363 1686 -795 604 -555 969 -1332 1003 -2133 5 -132 4 -158 -8 -158 -12 0
-12 -2 0 -9 27 -17 2 -361 -43 -591 -95 -488 -295 -924 -610 -1330 -103 -133
-370 -402 -505 -509 -463 -367 -974 -580 -1591 -663 -129 -17 -574 -17 -710 1
-379 48 -729 154 -1050 317 -1003 508 -1653 1512 -1706 2635 -7 132 -6 139 12
140 19 1 19 1 0 6 -18 5 -19 13 -12 143 31 660 264 1279 677 1801 107 135 376
402 509 505 350 272 726 459 1131 563 197 51 291 67 539 95 88 10 580 -3 678
-18z"/>
<path d="M3260 6324 c-463 -42 -894 -186 -1280 -427 -261 -163 -575 -451 -751
-687 -301 -404 -473 -816 -550 -1320 -29 -192 -32 -560 -5 -750 47 -340 128
-603 276 -905 136 -276 306 -513 534 -741 449 -449 1012 -726 1645 -809 436
-57 922 -3 1337 150 130 48 415 188 529 260 130 82 296 210 403 309 499 464
799 1035 899 1711 27 186 24 601 -6 794 -193 1247 -1147 2203 -2387 2391 -134
21 -521 35 -644 24z m-420 -1399 l0 -775 660 0 660 0 0 770 c0 528 3 770 10
770 6 0 54 -16 106 -36 289 -108 532 -257 772 -473 l102 -93 0 -469 0 -469
136 0 137 0 -6 -114 -5 -114 46 -7 c58 -9 145 -41 197 -73 52 -32 130 -107
158 -152 11 -19 24 -37 28 -40 16 -11 51 -140 56 -205 8 -111 -29 -240 -90
-312 -12 -14 -35 -41 -50 -59 -43 -50 -144 -112 -220 -135 -95 -30 -235 -24
-324 13 l-63 26 0 -533 0 -533 -93 -89 c-156 -149 -347 -282 -546 -383 -75
-37 -267 -116 -328 -135 l-23 -6 0 495 c0 273 -3 496 -7 496 -5 0 -50 -14
-101 -30 -354 -112 -735 -117 -1110 -15 -51 14 -95 25 -98 25 -2 0 -4 -220 -4
-490 l0 -489 -117 40 c-285 98 -578 276 -806 489 l-67 62 0 581 0 580 -44 71
c-165 268 -260 580 -281 934 l-6 102 166 0 165 0 0 479 0 478 73 70 c159 151
347 280 562 385 99 48 319 136 348 137 4 1 7 -348 7 -774z"/>
<path d="M1574 4013 c38 -491 223 -901 555 -1234 302 -301 647 -475 1076 -540
120 -19 166 -21 325 -16 290 10 503 61 756 182 288 137 519 326 706 576 l81
108 54 -39 c138 -99 314 -112 469 -36 249 123 326 448 159 674 -74 102 -226
182 -344 182 -39 0 -48 4 -57 25 -9 18 -9 25 0 28 6 2 12 38 14 90 l4 87
-1902 0 -1903 0 7 -87z"/>
</g>
</svg>
