<svg id="Layer_1" data-name="Layer 1" xmlns="http://www.w3.org/2000/svg" xmlns:xlink="http://www.w3.org/1999/xlink" viewBox="0 0 800 300"><defs><style>.cls-1,.cls-7{fill:none;}.cls-2{fill:#fdf6e3;}.cls-3,.cls-4{fill:#eee8d5;}.cls-4,.cls-8{stroke:#fdf6e3;}.cls-4,.cls-7,.cls-8{stroke-miterlimit:10;}.cls-4{stroke-width:20px;}.cls-5{clip-path:url(#clip-path);}.cls-6{fill:#dc322f;}.cls-7{stroke:#586e75;}.cls-7,.cls-8{stroke-width:4px;}.cls-8{fill:#586e75;}</style><clipPath id="clip-path"><circle class="cls-1" cx="603.71" cy="148.71" r="78.85"/></clipPath></defs><title>banner_light</title><rect class="cls-2" width="800" height="300"/><circle class="cls-2" cx="603.42" cy="149" r="117.27"/><circle class="cls-3" cx="604" cy="149" r="119"/><path class="cls-4" d="M502.33,149a101.1,101.1,0,0,1,202.19,0"/><path class="cls-4" d="M704.52,149a101.1,101.1,0,1,1-202.19,0"/><g id="Background"><g class="cls-5"><rect class="cls-6" x="525.28" y="66.25" width="22.53" height="167.62"/><rect class="cls-6" x="581.63" y="66.25" width="44.61" height="167.62"/><rect class="cls-2" x="626.24" y="66.25" width="33.79" height="167.62"/><rect class="cls-6" x="660.01" y="66.25" width="22.53" height="167.62"/><rect class="cls-2" x="547.84" y="66.25" width="33.79" height="167.62"/></g></g><circle class="cls-7" cx="603.42" cy="149" r="79.14"/><path class="cls-8" d="M668.16,135.44h-.28a65.75,65.75,0,0,0,.44-7.56v-.33H537.57v.33a65.36,65.36,0,0,0,119.89,36,16.26,16.26,0,1,0,10.7-28.49Zm.28,23.32a7.06,7.06,0,0,1-6.23-3.28A64.86,64.86,0,0,0,666.06,145a7.06,7.06,0,0,1,9.16,7A7.13,7.13,0,0,1,668.44,158.76Z"/></svg>