<svg id="Layer_1" data-name="Layer 1" xmlns="http://www.w3.org/2000/svg" viewBox="0 0 500 500"><defs><style>.cls-1{fill:#fff;}</style></defs><title>bean</title><path class="cls-1" d="M169.77,281.51c60.08-57.68,128.65-51.66,167.52-114.19C352.77,142.43,362,121,367.48,104.17,308.17,65.65,213.81,93.74,151,170.69c-61.1,74.82-71,169.61-25.88,221.14C126.07,360.37,134.53,315.34,169.77,281.51Z"/><path class="cls-1" d="M387.15,120.91c.66,22.76-3.78,48.6-21,70.11C325,242.26,215.28,251.74,178.18,332.54c-16.71,36.39-28.66,59.65-36.75,74.23,58.94,43,156.56,15.51,221-63.41C424.05,267.91,433.57,172.14,387.15,120.91Z"/></svg>