<svg xmlns="http://www.w3.org/2000/svg" xmlns:xlink="http://www.w3.org/1999/xlink" viewBox="0 0 500 500"><defs><style>.cls-1,.cls-7{fill:none;}.cls-2{fill:#fdf6e3;}.cls-3,.cls-4{fill:#eee8d5;}.cls-4,.cls-8{stroke:#fdf6e3;}.cls-4,.cls-7,.cls-8{stroke-miterlimit:10;}.cls-4{stroke-width:20px;}.cls-5{clip-path:url(#clip-path);}.cls-6{fill:#dc322f;}.cls-7{stroke:#586e75;}.cls-7,.cls-8{stroke-width:4px;}.cls-8{fill:#586e75;}</style><clipPath id="clip-path"><circle class="cls-1" cx="249.65" cy="249.64" r="165.83"/></clipPath></defs><title>icon</title><g id="Logo_2" data-name="Logo 2"><circle class="cls-2" cx="249.04" cy="250.25" r="246.61"/><circle class="cls-3" cx="250.25" cy="250.25" r="250.25"/><path class="cls-4" d="M36.44,250.25c0-117.41,95.18-212.6,212.6-212.6s212.6,95.18,212.6,212.6"/><path class="cls-4" d="M461.64,250.25c0,117.41-95.18,212.6-212.6,212.6s-212.6-95.18-212.6-212.6"/><g id="Background-2" data-name="Background"><g class="cls-5"><rect class="cls-6" x="84.71" y="76.23" width="47.38" height="352.5"/><rect class="cls-6" x="203.21" y="76.23" width="93.81" height="352.5"/><rect class="cls-2" x="297.02" y="76.23" width="71.07" height="352.5"/><rect class="cls-6" x="368.03" y="76.23" width="47.38" height="352.5"/><rect class="cls-2" x="132.15" y="76.23" width="71.07" height="352.5"/></g></g><circle class="cls-7" cx="249.04" cy="250.25" r="166.43"/><path class="cls-8" d="M385.17,221.74h-.58a138.27,138.27,0,0,0,.93-15.91v-.69h-275v.69c0,75.81,61.68,137.49,137.49,137.49a137.47,137.47,0,0,0,114.64-61.68,34.19,34.19,0,1,0,22.5-59.92Zm.58,49a14.84,14.84,0,0,1-13.11-6.89,136.4,136.4,0,0,0,8.1-22.13A14.86,14.86,0,0,1,400,256.52,15,15,0,0,1,385.76,270.78Z"/></g></svg>