<svg id="Layer_1" data-name="Layer 1" xmlns="http://www.w3.org/2000/svg" viewBox="0 0 500 500"><defs><style>.cls-1{fill:#657b83;}</style></defs><title>machine</title><path class="cls-1" d="M382.86,432.34a5.85,5.85,0,0,1-.72-1.51c-.19-1.74-.29-3.49-.35-5.24-.22-6.46-.41-12.92-.62-19.39,0-.38,0-.77-.06-1.15-.18-3.78-.46-7.55-.52-11.33a12.47,12.47,0,0,0-3.24-8.56,3,3,0,0,1-.71-1.69c-17.56,10.29-37.74,19.75-53.2,20.27-27.58.92-90.88-11.2-115-16.07A4.13,4.13,0,0,1,207,389c-4.73,2.89-9.37,5.9-14.08,8.83a5.41,5.41,0,0,0-2.59,3.83,34.38,34.38,0,0,0-.56,5.38c0,3.17.3,6.36.18,9.53-.32,8.1-.78,16.2-1.24,24.3-.12,2.12.34,4.45-1.62,6.1a.75.75,0,0,0-.17.45c-.42,3.5.33,7.32,3.86,9.45a26.7,26.7,0,0,0,8.21,2.77c1.7.38,3.45.54,5.16.89,2.61.54,5.19,1.23,7.81,1.72s5.52.86,8.27,1.3c5,.79,9.94,1.57,14.91,2.41,3.88.65,7.74,1.38,11.61,2.07.43.08.87.12,1.3.18,5.38.71,10.75,1.41,16.12,2.15,4.23.58,8.45,1.28,12.69,1.78,5.6.66,11.21,1.26,16.82,1.73,6.22.52,12.44,1,18.68,1.22a60.21,60.21,0,0,0,13.57-.92c4.51-.87,9-1.63,13.5-2.69a74.3,74.3,0,0,0,8.87-2.86,113.31,113.31,0,0,0,12.11-5c4.56-2.35,8.9-5.17,13.23-7.94A24.23,24.23,0,0,0,383.3,445a14.5,14.5,0,0,0,1.33-8.48A19.7,19.7,0,0,0,382.86,432.34Z"/><path class="cls-1" d="M375.32,359.79q-.82-15-1.64-30.05-.85-15.93-1.67-31.86-.64-12.15-1.31-24.31-.83-15.52-1.64-31-.66-12.48-1.31-25-.41-7.8-.83-15.61c-12.11,3.9-47.59,15.07-58.77,15.68-11.4.62-74.71-5.12-94.57-7q-.17,5.91-.33,11.82c-.14,5.48-.24,11-.38,16.45q-.31,12.42-.65,24.83-.31,12-.62,24c-.34,13-.74,26-1,39a10.64,10.64,0,0,1-2.15,6.72,6.45,6.45,0,0,0-1.28,4.15c0,2-.08,3.95-.22,5.92-.26,3.6-.2,7.12,1.91,10.29a6.62,6.62,0,0,1,1,4.25c-.14,2-.2,4.05-.26,6.08-.17,5.48-.37,11-.5,16.45,22.05,4,91.67,16.25,116.66,14.81,13.46-.78,33.11-8.68,50.63-17.13Q375.82,369.06,375.32,359.79Z"/><path class="cls-1" d="M213,198.11c17,1,62,3.56,86.25,4.58,8.56.36,14.05-.54,16.35-1.25,8.37-2.57,39.08-11.07,50.52-14.23V187a2.29,2.29,0,0,1,.62-1.7,3.3,3.3,0,0,0,1.28-3c-.23-4.05-.43-8.1-.66-12.15-.43-7.72-1-15.43-1.24-23.15a4.62,4.62,0,0,0-2.88-4.49,2,2,0,0,1-1.25-2.05q-.27-10.93-.62-21.87-.34-10.6-.73-21.2c-.09-2.46-.19-4.93-.36-7.39q-.59-8.94-1.25-17.87c-.33-4.53-.68-9.07-1.06-13.6q-.75-8.76-1.58-17.51c-.42-4.42-.86-8.84-1.35-13.25a4.33,4.33,0,0,0-3.49-4.08c-1.28-.31-140,1.9-144.2,2.46-17.28,2.32-31,11.22-43,23.35-6.28,6.38-11.63,13.57-16.88,20.8q-12.89,17.78-25.66,35.65c-1.47,2-2.87,4.15-4.26,6.25a4.53,4.53,0,0,0-.11,4.84c.47.93,1,1.82,1.5,2.74,5.27,9.93,10.59,19.83,15.8,29.8s9.8,20.48,14.08,31a7.52,7.52,0,0,1,.24,2.87c-.05,2.89-.17,5.79-.26,8.68,0,1.24.62,1.76,1.79,1.85,2.9.22,5.79.49,8.69.69,5.47.37,10.94.7,16.41,1l25.77,1.62c3.61.23,7.22.48,10.83.67A2.47,2.47,0,0,1,213,198.11Zm-31.47-49.75c-4.28.64-8.56,1.35-12.87,1.79-4.83.49-7.78,3.17-9.54,7.46q-4,9.74-8,19.49c-.18.45-.39.89-.58,1.33l-.4.07c-.89-1.92-1.78-3.85-2.68-5.77-4.61-9.83-9-19.75-13.89-29.46-3.92-7.84-8.37-15.42-12.57-23.12-.55-1-1.08-2-1.54-3.09a3.19,3.19,0,0,1,2.39-4.75,10.9,10.9,0,0,1,2.77-.3c5.7.18,11.39.42,17.08.63l26.62,1q9.12.33,18.24.64,10.6.35,21.2.67l19.88.64c7.07.23,14.13.42,21.2.68,4.6.17,9.2.32,13.79.65a14.83,14.83,0,0,1,11.53,6.15c3,4.2,5.45,8.73,8.13,13.13a4.84,4.84,0,0,1,.27.83c-.66.07-1.22.17-1.79.2-8.22.37-16.44.62-24.65,1.11q-14.45.86-28.77,3.08C212.14,143.79,196.85,146.07,181.56,148.37Z"/></svg>